<svg xmlns="http://www.w3.org/2000/svg" version="1.1" xmlns:xlink="http://www.w3.org/1999/xlink" xmlns:svgjs="http://svgjs.dev/svgjs" width="1000" height="1000"><g clip-path="url(#SvgjsClipPath1013)"><rect width="1000" height="1000" fill="#ffffff"></rect><g transform="matrix(21.875,0,0,21.875,150,150)"><svg xmlns="http://www.w3.org/2000/svg" version="1.1" xmlns:xlink="http://www.w3.org/1999/xlink" xmlns:svgjs="http://svgjs.dev/svgjs" width="32" height="32"><svg xmlns="http://www.w3.org/2000/svg" width="32" height="32" fill="#000000" viewBox="0 0 256 256"><path d="M231.53,146.57,175.68,50.66l-.11-.19a56,56,0,0,0-95.14,0l-.11.19L24.47,146.57A56,56,0,0,0,72.09,232H183.91a56,56,0,0,0,47.62-85.43ZM160,216H96V168h64Zm58.86-20.55A39.49,39.49,0,0,1,183.91,216H176V168a16,16,0,0,0-16-16H96a16,16,0,0,0-16,16v48H72.09a40,40,0,0,1-34-61.09,2,2,0,0,0,.11-.2l55.85-95.9a40,40,0,0,1,67.84,0l55.85,95.9a2,2,0,0,0,.11.2A39.5,39.5,0,0,1,218.85,195.45Z"></path></svg></svg></g></g><defs><clipPath id="SvgjsClipPath1013"><rect width="1000" height="1000" x="0" y="0" rx="350" ry="350"></rect></clipPath></defs></svg>